# xmcd
#
# Track frame offsets: 
#        150
#        6380
#        16077
#        27748
#        37844
#        50151
#        60299
#        72904
#        83668
#        93802
#
# Disc length: 1441 seconds
#
# Revision: 0
# Processed by: cddbd v1.5.2PL0 Copyright (c) Steve Scherf et al.
# Submitted via: ExactAudioCopy v0.99pb4
#
DISCID=72059f0a
DTITLE=Mickey Gilley - Suburban Cowboy
DYEAR=1982
DGENRE=Country
TTITLE0=The Boy Who Didn't Pass
TTITLE1=Fraulein
TTITLE2=Black Mountain Rag
TTITLE3=I Miss You So
TTITLE4=Just Out of Reach
TTITLE5=Keepin' On
TTITLE6=Still Care About You
TTITLE7=Grapevine
TTITLE8=That's How It's Got To Be
TTITLE9=Rocky Top
EXTD=
EXTT0=
EXTT1=
EXTT2=
EXTT3=
EXTT4=
EXTT5=
EXTT6=
EXTT7=
EXTT8=
EXTT9=
PLAYORDER=
